<svg width="800" height="600" viewBox="0 0 800 600" xmlns="http://www.w3.org/2000/svg">
  <!-- Background Gradient -->
  <defs>
    <linearGradient id="grad" x1="0%" y1="0%" x2="100%" y2="100%">
      <stop offset="0%" style="stop-color:#7B68EE;stop-opacity:0.1"/>
      <stop offset="100%" style="stop-color:#483D8B;stop-opacity:0.1"/>
    </linearGradient>
  </defs>
  <rect width="800" height="600" fill="url(#grad)"/>

  <!-- Connected Circles Representing Collaboration -->
  <g transform="translate(400,300)">
    <!-- Human Circle -->
    <circle cx="-100" cy="0" r="60" fill="none" stroke="#7B68EE" stroke-width="3"/>
    <path d="M -120 -20 L -80 -20 M -100 -10 L -100 20 L -120 50 M -100 20 L -80 50" 
          stroke="#7B68EE" stroke-width="3" fill="none"/>
    
    <!-- AI Circle -->
    <circle cx="100" cy="0" r="60" fill="none" stroke="#483D8B" stroke-width="3"/>
    <g transform="translate(100,0)">
      <path d="M -30 -20 L 30 -20 M -30 0 L 30 0 M -30 20 L 30 20" 
            stroke="#483D8B" stroke-width="3"/>
    </g>

    <!-- Connection Lines -->
    <g stroke="#7057A0" stroke-width="2">
      <line x1="-30" y1="-30" x2="30" y2="30" opacity="0.6">
        <animate attributeName="opacity" values="0.6;1;0.6" dur="2s" repeatCount="indefinite"/>
      </line>
      <line x1="30" y1="-30" x2="-30" y2="30" opacity="0.6">
        <animate attributeName="opacity" values="0.6;1;0.6" dur="2s" repeatCount="indefinite" begin="1s"/>
      </line>
    </g>

    <!-- Central Connection Point -->
    <circle cx="0" cy="0" r="15" fill="#7057A0">
      <animate attributeName="r" values="15;20;15" dur="2s" repeatCount="indefinite"/>
    </circle>
  </g>

  <!-- Decorative Elements -->
  <g stroke="#7B68EE" stroke-width="1" opacity="0.3">
    <circle cx="100" cy="100" r="20" fill="none"/>
    <circle cx="700" cy="500" r="30" fill="none"/>
    <circle cx="200" cy="500" r="15" fill="none"/>
    <circle cx="600" cy="100" r="25" fill="none"/>
  </g>
</svg> 