<svg width="800" height="600" viewBox="0 0 800 600" xmlns="http://www.w3.org/2000/svg">
  <!-- Background Circuit Pattern -->
  <pattern id="circuit" width="100" height="100" patternUnits="userSpaceOnUse">
    <path d="M 50 0 L 50 100 M 0 50 L 100 50" stroke="#7B68EE" stroke-width="1" stroke-opacity="0.2"/>
    <circle cx="50" cy="50" r="3" fill="#7B68EE"/>
  </pattern>
  <rect width="800" height="600" fill="url(#circuit)" opacity="0.1"/>

  <!-- Central Brain Icon -->
  <g transform="translate(400,300)">
    <!-- Brain Outline -->
    <path d="M -100 0 C -100 -55.2 -55.2 -100 0 -100 C 55.2 -100 100 -55.2 100 0 C 100 55.2 55.2 100 0 100 C -55.2 100 -100 55.2 -100 0" 
          fill="none" stroke="#7B68EE" stroke-width="4"/>
    
    <!-- Neural Network Lines -->
    <g stroke="#7B68EE" stroke-width="2">
      <line x1="-50" y1="-50" x2="50" y2="50" opacity="0.6"/>
      <line x1="50" y1="-50" x2="-50" y2="50" opacity="0.6"/>
      <line x1="0" y1="-70" x2="0" y2="70" opacity="0.6"/>
      <line x1="-70" y1="0" x2="70" y2="0" opacity="0.6"/>
    </g>

    <!-- Connection Points -->
    <g fill="#7B68EE">
      <circle cx="-50" cy="-50" r="5"/>
      <circle cx="50" cy="-50" r="5"/>
      <circle cx="-50" cy="50" r="5"/>
      <circle cx="50" cy="50" r="5"/>
      <circle cx="0" cy="0" r="8"/>
    </g>
  </g>

  <!-- Animated Pulse Effect -->
  <circle cx="400" cy="300" r="120" fill="none" stroke="#7B68EE" stroke-width="2" opacity="0.2">
    <animate attributeName="r" values="120;150;120" dur="3s" repeatCount="indefinite"/>
    <animate attributeName="opacity" values="0.2;0;0.2" dur="3s" repeatCount="indefinite"/>
  </circle>
</svg> 